<svg xmlns="http://www.w3.org/2000/svg" width="1000" height="800" viewBox="0 0 1000 800">
  <defs>
    <linearGradient id="bg" x1="0" y1="0" x2="0" y2="1">
      <stop offset="0%" stop-color="#F4F6F2" />
      <stop offset="100%" stop-color="#DEE7DC" />
    </linearGradient>
  </defs>
  <rect width="1000" height="800" fill="url(#bg)" />
  <circle cx="160" cy="160" r="90" fill="#D3E0DC" />
  <circle cx="860" cy="160" r="90" fill="#D3E0DC" />
  <rect x="120" y="180" width="760" height="460" rx="32" fill="#FFFFFF" />
  <rect x="200" y="300" width="220" height="260" rx="20" fill="#F1F5F4" />
  <rect x="240" y="330" width="140" height="200" rx="18" fill="none" stroke="#1E6F5C" stroke-width="6" />
  <circle cx="310" cy="420" r="22" fill="none" stroke="#1E6F5C" stroke-width="6" />
  <line x1="310" y1="442" x2="310" y2="490" stroke="#1E6F5C" stroke-width="6" />
  <path d="M260 510 Q310 560 360 510" fill="none" stroke="#1E6F5C" stroke-width="6" />
  <path d="M420 330 Q460 350 480 390" fill="none" stroke="#4F8A8B" stroke-width="6" />
  <path d="M430 310 Q490 340 520 410" fill="none" stroke="#4F8A8B" stroke-width="6" />
  <path d="M440 290 Q520 330 560 430" fill="none" stroke="#4F8A8B" stroke-width="6" />
  <text x="510" y="360" font-family="Arial, sans-serif" font-size="44" fill="#1E6F5C" font-weight="700">Smart Alarm</text>
  <text x="510" y="410" font-family="Arial, sans-serif" font-size="28" fill="#4F8A8B">Device Share</text>
  <rect x="510" y="460" width="300" height="60" rx="24" fill="#1E6F5C" />
  <text x="535" y="500" font-family="Arial, sans-serif" font-size="26" fill="#FFFFFF">Family Access</text>
  <text x="360" y="730" font-family="Arial, sans-serif" font-size="24" fill="#64706B">Secure device sharing</text>
</svg>
